<mxfile host="app.diagrams.net" modified="2022-08-30T20:45:11.048Z" agent="5.0 (Windows NT 10.0; Win64; x64) AppleWebKit/537.36 (KHTML, like Gecko) Chrome/104.0.0.0 Safari/537.36" etag="FfWxo1X7fUrpmH7UnInN" version="20.2.7" type="github">
  <diagram id="nj2Ikrf6HS44DR3t7Bw3" name="Sayfa -1">
    <mxGraphModel dx="2062" dy="762" grid="1" gridSize="10" guides="1" tooltips="1" connect="1" arrows="1" fold="1" page="1" pageScale="1" pageWidth="827" pageHeight="1169" math="0" shadow="0">
      <root>
        <mxCell id="0" />
        <mxCell id="1" parent="0" />
        <mxCell id="s5SSo3_lAYjHXY8VCYsW-4" style="edgeStyle=orthogonalEdgeStyle;rounded=0;orthogonalLoop=1;jettySize=auto;html=1;exitX=1;exitY=0.5;exitDx=0;exitDy=0;entryX=0;entryY=0.5;entryDx=0;entryDy=0;" edge="1" parent="1" source="s5SSo3_lAYjHXY8VCYsW-1" target="s5SSo3_lAYjHXY8VCYsW-2">
          <mxGeometry relative="1" as="geometry">
            <Array as="points">
              <mxPoint x="420" y="115" />
              <mxPoint x="420" y="115" />
            </Array>
          </mxGeometry>
        </mxCell>
        <mxCell id="s5SSo3_lAYjHXY8VCYsW-1" value="excel to solr core1 data&lt;br&gt;model" style="rounded=0;whiteSpace=wrap;html=1;" vertex="1" parent="1">
          <mxGeometry x="40" y="190" width="190" height="150" as="geometry" />
        </mxCell>
        <mxCell id="s5SSo3_lAYjHXY8VCYsW-5" style="edgeStyle=orthogonalEdgeStyle;rounded=0;orthogonalLoop=1;jettySize=auto;html=1;exitX=0.5;exitY=1;exitDx=0;exitDy=0;" edge="1" parent="1" source="s5SSo3_lAYjHXY8VCYsW-2" target="s5SSo3_lAYjHXY8VCYsW-3">
          <mxGeometry relative="1" as="geometry" />
        </mxCell>
        <mxCell id="s5SSo3_lAYjHXY8VCYsW-2" value="Oems Tablosu" style="rounded=0;whiteSpace=wrap;html=1;" vertex="1" parent="1">
          <mxGeometry x="630" y="40" width="190" height="150" as="geometry" />
        </mxCell>
        <mxCell id="s5SSo3_lAYjHXY8VCYsW-6" style="edgeStyle=orthogonalEdgeStyle;rounded=0;orthogonalLoop=1;jettySize=auto;html=1;entryX=1;entryY=0.5;entryDx=0;entryDy=0;" edge="1" parent="1" source="s5SSo3_lAYjHXY8VCYsW-3" target="s5SSo3_lAYjHXY8VCYsW-1">
          <mxGeometry relative="1" as="geometry">
            <Array as="points">
              <mxPoint x="540" y="265" />
              <mxPoint x="540" y="265" />
            </Array>
          </mxGeometry>
        </mxCell>
        <mxCell id="s5SSo3_lAYjHXY8VCYsW-7" value="model eslenecek" style="edgeLabel;html=1;align=center;verticalAlign=middle;resizable=0;points=[];" vertex="1" connectable="0" parent="s5SSo3_lAYjHXY8VCYsW-6">
          <mxGeometry x="-0.1512" y="3" relative="1" as="geometry">
            <mxPoint x="-10" y="-13" as="offset" />
          </mxGeometry>
        </mxCell>
        <mxCell id="s5SSo3_lAYjHXY8VCYsW-13" style="edgeStyle=orthogonalEdgeStyle;rounded=0;orthogonalLoop=1;jettySize=auto;html=1;exitX=0.5;exitY=1;exitDx=0;exitDy=0;entryX=0.5;entryY=0;entryDx=0;entryDy=0;" edge="1" parent="1" source="s5SSo3_lAYjHXY8VCYsW-3" target="s5SSo3_lAYjHXY8VCYsW-12">
          <mxGeometry relative="1" as="geometry" />
        </mxCell>
        <mxCell id="s5SSo3_lAYjHXY8VCYsW-3" value="parcaplaza datasi&lt;br&gt;" style="rounded=0;whiteSpace=wrap;html=1;" vertex="1" parent="1">
          <mxGeometry x="630" y="200" width="190" height="150" as="geometry" />
        </mxCell>
        <mxCell id="s5SSo3_lAYjHXY8VCYsW-8" value="" style="endArrow=classic;html=1;rounded=0;exitX=1;exitY=1;exitDx=0;exitDy=0;entryX=0;entryY=0;entryDx=0;entryDy=0;" edge="1" parent="1" source="s5SSo3_lAYjHXY8VCYsW-1" target="s5SSo3_lAYjHXY8VCYsW-12">
          <mxGeometry width="50" height="50" relative="1" as="geometry">
            <mxPoint x="390" y="400" as="sourcePoint" />
            <mxPoint x="420" y="430" as="targetPoint" />
          </mxGeometry>
        </mxCell>
        <mxCell id="s5SSo3_lAYjHXY8VCYsW-9" value="" style="endArrow=classic;html=1;rounded=0;exitX=0;exitY=0.42;exitDx=0;exitDy=0;exitPerimeter=0;entryX=0.695;entryY=1;entryDx=0;entryDy=0;entryPerimeter=0;" edge="1" parent="1" source="s5SSo3_lAYjHXY8VCYsW-12" target="s5SSo3_lAYjHXY8VCYsW-1">
          <mxGeometry width="50" height="50" relative="1" as="geometry">
            <mxPoint x="390" y="400" as="sourcePoint" />
            <mxPoint x="440" y="430" as="targetPoint" />
          </mxGeometry>
        </mxCell>
        <mxCell id="s5SSo3_lAYjHXY8VCYsW-10" value="esitlenmis son data" style="rounded=0;whiteSpace=wrap;html=1;" vertex="1" parent="1">
          <mxGeometry x="230" y="460" width="220" height="110" as="geometry" />
        </mxCell>
        <mxCell id="s5SSo3_lAYjHXY8VCYsW-11" value="&lt;h1&gt;Oem Mantigi&lt;/h1&gt;&lt;p&gt;Lorem ipsum dolor sit amet, consectetur adipisicing elit, sed do eiusmod tempor incididunt ut labore et dolore magna aliqua.&lt;/p&gt;" style="text;html=1;strokeColor=none;fillColor=none;spacing=5;spacingTop=-20;whiteSpace=wrap;overflow=hidden;rounded=0;" vertex="1" parent="1">
          <mxGeometry x="50" y="650" width="690" height="150" as="geometry" />
        </mxCell>
        <mxCell id="s5SSo3_lAYjHXY8VCYsW-12" value="solr core 2" style="rounded=0;whiteSpace=wrap;html=1;" vertex="1" parent="1">
          <mxGeometry x="630" y="390" width="190" height="100" as="geometry" />
        </mxCell>
      </root>
    </mxGraphModel>
  </diagram>
</mxfile>
